<mxfile host="app.diagrams.net" modified="2024-01-26T08:33:25.816Z" agent="Mozilla/5.0 (Windows NT 10.0; Win64; x64) AppleWebKit/537.36 (KHTML, like Gecko) Chrome/120.0.0.0 Safari/537.36" etag="yiNsBzAVxfCFrPQWGDnT" version="23.0.1" type="device">
  <diagram name="Page-1" id="e7e014a7-5840-1c2e-5031-d8a46d1fe8dd">
    <mxGraphModel dx="1050" dy="557" grid="1" gridSize="10" guides="1" tooltips="1" connect="1" arrows="1" fold="1" page="1" pageScale="1" pageWidth="1169" pageHeight="826" background="none" math="0" shadow="0">
      <root>
        <mxCell id="0" />
        <mxCell id="1" parent="0" />
        <mxCell id="2" value="Dosen Peneliti" style="swimlane;whiteSpace=wrap;startSize=23;" parent="1" vertex="1">
          <mxGeometry x="164.5" y="128" width="280" height="892" as="geometry" />
        </mxCell>
        <mxCell id="5" value="" style="ellipse;shape=startState;fillColor=#000000;strokeColor=#ff0000;" parent="2" vertex="1">
          <mxGeometry x="100" y="40" width="30" height="30" as="geometry" />
        </mxCell>
        <mxCell id="6" value="" style="edgeStyle=elbowEdgeStyle;elbow=horizontal;verticalAlign=bottom;endArrow=open;endSize=8;strokeColor=#FF0000;endFill=1;rounded=0" parent="2" source="5" edge="1">
          <mxGeometry x="100" y="40" as="geometry">
            <mxPoint x="115.5" y="110" as="targetPoint" />
          </mxGeometry>
        </mxCell>
        <mxCell id="7kPCGYujOhloyxujFmpx-65" style="edgeStyle=orthogonalEdgeStyle;rounded=0;orthogonalLoop=1;jettySize=auto;html=1;entryX=0.5;entryY=0;entryDx=0;entryDy=0;" edge="1" parent="2" source="7kPCGYujOhloyxujFmpx-63" target="7kPCGYujOhloyxujFmpx-64">
          <mxGeometry relative="1" as="geometry" />
        </mxCell>
        <mxCell id="7kPCGYujOhloyxujFmpx-63" value="Klik tombol pengajuan penenlitian" style="rounded=1;whiteSpace=wrap;html=1;" vertex="1" parent="2">
          <mxGeometry x="55.5" y="112" width="120" height="60" as="geometry" />
        </mxCell>
        <mxCell id="7kPCGYujOhloyxujFmpx-67" value="" style="edgeStyle=orthogonalEdgeStyle;rounded=0;orthogonalLoop=1;jettySize=auto;html=1;" edge="1" parent="2" source="7kPCGYujOhloyxujFmpx-64" target="7kPCGYujOhloyxujFmpx-66">
          <mxGeometry relative="1" as="geometry" />
        </mxCell>
        <mxCell id="7kPCGYujOhloyxujFmpx-64" value="Isi form pengajuan" style="rounded=1;whiteSpace=wrap;html=1;" vertex="1" parent="2">
          <mxGeometry x="55.5" y="202" width="120" height="60" as="geometry" />
        </mxCell>
        <mxCell id="7kPCGYujOhloyxujFmpx-66" value="Melengkapi detail dan dokumen serta mengajukan proposal" style="rounded=1;whiteSpace=wrap;html=1;" vertex="1" parent="2">
          <mxGeometry x="55" y="292" width="120" height="60" as="geometry" />
        </mxCell>
        <mxCell id="3" value="Admin" style="swimlane;whiteSpace=wrap" parent="1" vertex="1">
          <mxGeometry x="445" y="128" width="280" height="892" as="geometry" />
        </mxCell>
        <mxCell id="19" value="" style="endArrow=open;strokeColor=#FF0000;endFill=1;rounded=0" parent="3" edge="1">
          <mxGeometry relative="1" as="geometry">
            <mxPoint x="75" y="270" as="sourcePoint" />
          </mxGeometry>
        </mxCell>
        <mxCell id="24" value="" style="endArrow=open;strokeColor=#FF0000;endFill=1;rounded=0" parent="3" edge="1">
          <mxGeometry relative="1" as="geometry">
            <mxPoint x="130" y="245" as="sourcePoint" />
          </mxGeometry>
        </mxCell>
        <mxCell id="7kPCGYujOhloyxujFmpx-72" style="edgeStyle=orthogonalEdgeStyle;rounded=0;orthogonalLoop=1;jettySize=auto;html=1;entryX=0.5;entryY=0;entryDx=0;entryDy=0;" edge="1" parent="3" source="7kPCGYujOhloyxujFmpx-68" target="7kPCGYujOhloyxujFmpx-69">
          <mxGeometry relative="1" as="geometry" />
        </mxCell>
        <mxCell id="7kPCGYujOhloyxujFmpx-68" value="Menrima&amp;nbsp; dan mengecek kelengkapan dokumen proposal" style="rounded=1;whiteSpace=wrap;html=1;" vertex="1" parent="3">
          <mxGeometry x="75" y="292" width="120" height="60" as="geometry" />
        </mxCell>
        <mxCell id="7kPCGYujOhloyxujFmpx-75" style="edgeStyle=orthogonalEdgeStyle;rounded=0;orthogonalLoop=1;jettySize=auto;html=1;entryX=0.5;entryY=0;entryDx=0;entryDy=0;" edge="1" parent="3" source="7kPCGYujOhloyxujFmpx-69" target="7kPCGYujOhloyxujFmpx-74">
          <mxGeometry relative="1" as="geometry" />
        </mxCell>
        <mxCell id="7kPCGYujOhloyxujFmpx-69" value="Sesuai?" style="rhombus;whiteSpace=wrap;html=1;" vertex="1" parent="3">
          <mxGeometry x="95" y="412" width="80" height="80" as="geometry" />
        </mxCell>
        <mxCell id="7kPCGYujOhloyxujFmpx-74" value="Tunjuk reviewer" style="rounded=1;whiteSpace=wrap;html=1;" vertex="1" parent="3">
          <mxGeometry x="75" y="542" width="120" height="60" as="geometry" />
        </mxCell>
        <mxCell id="7kPCGYujOhloyxujFmpx-83" value="Alokasi dan pencairan dana tahap 1" style="rounded=1;whiteSpace=wrap;html=1;" vertex="1" parent="3">
          <mxGeometry x="75" y="732" width="120" height="60" as="geometry" />
        </mxCell>
        <mxCell id="38" value="" style="ellipse;shape=endState;fillColor=#000000;strokeColor=#ff0000" parent="3" vertex="1">
          <mxGeometry x="120" y="852" width="30" height="30" as="geometry" />
        </mxCell>
        <mxCell id="7kPCGYujOhloyxujFmpx-85" style="edgeStyle=orthogonalEdgeStyle;rounded=0;orthogonalLoop=1;jettySize=auto;html=1;entryX=0.5;entryY=0;entryDx=0;entryDy=0;" edge="1" parent="3" source="7kPCGYujOhloyxujFmpx-83" target="38">
          <mxGeometry relative="1" as="geometry" />
        </mxCell>
        <mxCell id="7kPCGYujOhloyxujFmpx-38" value="Dosen Reviewer" style="swimlane;whiteSpace=wrap;startSize=23;" vertex="1" parent="1">
          <mxGeometry x="725" y="128" width="280" height="892" as="geometry" />
        </mxCell>
        <mxCell id="7kPCGYujOhloyxujFmpx-39" value="" style="endArrow=open;strokeColor=#FF0000;endFill=1;rounded=0" edge="1" parent="7kPCGYujOhloyxujFmpx-38">
          <mxGeometry relative="1" as="geometry">
            <mxPoint x="75" y="270" as="sourcePoint" />
          </mxGeometry>
        </mxCell>
        <mxCell id="7kPCGYujOhloyxujFmpx-41" value="" style="endArrow=open;strokeColor=#FF0000;endFill=1;rounded=0" edge="1" parent="7kPCGYujOhloyxujFmpx-38">
          <mxGeometry relative="1" as="geometry">
            <mxPoint x="130" y="245" as="sourcePoint" />
          </mxGeometry>
        </mxCell>
        <mxCell id="7kPCGYujOhloyxujFmpx-79" style="edgeStyle=orthogonalEdgeStyle;rounded=0;orthogonalLoop=1;jettySize=auto;html=1;entryX=0.5;entryY=0;entryDx=0;entryDy=0;" edge="1" parent="7kPCGYujOhloyxujFmpx-38" source="7kPCGYujOhloyxujFmpx-76" target="7kPCGYujOhloyxujFmpx-78">
          <mxGeometry relative="1" as="geometry" />
        </mxCell>
        <mxCell id="7kPCGYujOhloyxujFmpx-76" value="&amp;nbsp;Mereview proposal dan memberi keputusan" style="rounded=1;whiteSpace=wrap;html=1;" vertex="1" parent="7kPCGYujOhloyxujFmpx-38">
          <mxGeometry x="95" y="542" width="120" height="60" as="geometry" />
        </mxCell>
        <mxCell id="7kPCGYujOhloyxujFmpx-78" value="Terima?" style="rhombus;whiteSpace=wrap;html=1;" vertex="1" parent="7kPCGYujOhloyxujFmpx-38">
          <mxGeometry x="115" y="642" width="80" height="80" as="geometry" />
        </mxCell>
        <mxCell id="7kPCGYujOhloyxujFmpx-70" style="edgeStyle=orthogonalEdgeStyle;rounded=0;orthogonalLoop=1;jettySize=auto;html=1;entryX=0.454;entryY=1.057;entryDx=0;entryDy=0;entryPerimeter=0;" edge="1" parent="1" source="7kPCGYujOhloyxujFmpx-69" target="7kPCGYujOhloyxujFmpx-66">
          <mxGeometry relative="1" as="geometry" />
        </mxCell>
        <mxCell id="7kPCGYujOhloyxujFmpx-71" value="Tidak" style="edgeLabel;html=1;align=center;verticalAlign=middle;resizable=0;points=[];" vertex="1" connectable="0" parent="7kPCGYujOhloyxujFmpx-70">
          <mxGeometry x="-0.1109" y="1" relative="1" as="geometry">
            <mxPoint as="offset" />
          </mxGeometry>
        </mxCell>
        <mxCell id="7kPCGYujOhloyxujFmpx-73" style="edgeStyle=orthogonalEdgeStyle;rounded=0;orthogonalLoop=1;jettySize=auto;html=1;entryX=0;entryY=0.5;entryDx=0;entryDy=0;" edge="1" parent="1" source="7kPCGYujOhloyxujFmpx-66" target="7kPCGYujOhloyxujFmpx-68">
          <mxGeometry relative="1" as="geometry" />
        </mxCell>
        <mxCell id="7kPCGYujOhloyxujFmpx-77" style="edgeStyle=orthogonalEdgeStyle;rounded=0;orthogonalLoop=1;jettySize=auto;html=1;" edge="1" parent="1" source="7kPCGYujOhloyxujFmpx-74" target="7kPCGYujOhloyxujFmpx-76">
          <mxGeometry relative="1" as="geometry" />
        </mxCell>
        <mxCell id="7kPCGYujOhloyxujFmpx-80" style="edgeStyle=orthogonalEdgeStyle;rounded=0;orthogonalLoop=1;jettySize=auto;html=1;entryX=0.5;entryY=1;entryDx=0;entryDy=0;" edge="1" parent="1" source="7kPCGYujOhloyxujFmpx-78" target="7kPCGYujOhloyxujFmpx-74">
          <mxGeometry relative="1" as="geometry" />
        </mxCell>
        <mxCell id="7kPCGYujOhloyxujFmpx-81" value="Tidak" style="edgeLabel;html=1;align=center;verticalAlign=middle;resizable=0;points=[];" vertex="1" connectable="0" parent="7kPCGYujOhloyxujFmpx-80">
          <mxGeometry x="0.0376" y="1" relative="1" as="geometry">
            <mxPoint as="offset" />
          </mxGeometry>
        </mxCell>
        <mxCell id="7kPCGYujOhloyxujFmpx-84" style="edgeStyle=orthogonalEdgeStyle;rounded=0;orthogonalLoop=1;jettySize=auto;html=1;exitX=0.5;exitY=1;exitDx=0;exitDy=0;entryX=1;entryY=0.5;entryDx=0;entryDy=0;" edge="1" parent="1" source="7kPCGYujOhloyxujFmpx-78" target="7kPCGYujOhloyxujFmpx-83">
          <mxGeometry relative="1" as="geometry" />
        </mxCell>
        <mxCell id="7kPCGYujOhloyxujFmpx-86" value="Ya" style="edgeLabel;html=1;align=center;verticalAlign=middle;resizable=0;points=[];" vertex="1" connectable="0" parent="7kPCGYujOhloyxujFmpx-84">
          <mxGeometry x="-0.6779" y="-1" relative="1" as="geometry">
            <mxPoint as="offset" />
          </mxGeometry>
        </mxCell>
      </root>
    </mxGraphModel>
  </diagram>
</mxfile>
